# xmcd
# 
# Track frame offsets:
#     150
#     11110
#     24576
#     41103
#     66156
#     90034
#     109898
#     130218
#     151781
#     167685
#     182442
#     197852
#     213402
#     237230
# 
# Disc length: 3405
# 
# Revision: 0
# Processed by: cddbd v1.5.2PL0 Copyright (c) Steve Scherf et al.
# Submitted via: fre:ac v1.0.27
# 
DISCID=b30d4b0e
DTITLE=Various Artist - Hallelujah Festliche Chöre
DYEAR=2009
DGENRE=Chorus
TTITLE0=Vivaldi - Gloria in D RV589: Gloria in excelsis deo
TTITLE1=Bach - Magnificat in D BWV243: Magnificat
TTITLE2=Händel - Der Messias HWV56: Denn es ist uns ein Kind geboren
TTITLE3=Bach - Weihnachtsoratorium BWV248: Bereite dich, Zion
TTITLE4=Händel - Zadok the priest: Coronation anthem
TTITLE5=Bach - Messe h-moll BWV232: Cum sancto spiritu
TTITLE6=Bach - Messe h-moll BWV232: Et incarnatus est
TTITLE7=Bach - Kantate BWV140: Zion hört die Wächter singen
TTITLE8=Bach - Kantate BWV147: Jesus bleibet meine Freude
TTITLE9=Mozart - Krönungsmesse KV317: Benedictus
TTITLE10=Mozart - Ave verum corpus KV618
TTITLE11=Haydn - Nelsonmesse: In excelsis deo
TTITLE12=Gounod - Cäcilienmesse: Sanctus
TTITLE13=Händel - Der Messias HWV56: Hallelujah
EXTD=
EXTT0=
EXTT1=
EXTT2=
EXTT3=
EXTT4=
EXTT5=
EXTT6=
EXTT7=
EXTT8=
EXTT9=
EXTT10=
EXTT11=
EXTT12=
EXTT13=
PLAYORDER=
